# xmcd
#
# Track frame offsets:
#	150
#	54320
#	78510
#	106797
#	109277
#	151957
#	184927
#
# Disc length: 2943 seconds
#
# Revision: 10
# Processed by: cddbd v1.5.2PL0 Copyright (c) Steve Scherf et al.
# Submitted via: audiograbber 1.83.01
#
DISCID=500b7d07
DTITLE=Pink Floyd - Delicate Sound of Thunder  CD1 Live
DYEAR=1988
DGENRE=Progressive Rock
TTITLE0=Shine On You Crazy Diamond
TTITLE1=Learning to Fly
TTITLE2=Yet Another Movie
TTITLE3=Round and Around
TTITLE4=Sorrow
TTITLE5=The Dogs of War
TTITLE6=On the Turning Away
EXTD=
EXTT0=
EXTT1=
EXTT2=
EXTT3=
EXTT4=
EXTT5=
EXTT6=
PLAYORDER=
